<svg width="1456" height="294" viewBox="0 0 1456 294" fill="none" xmlns="http://www.w3.org/2000/svg">
<g clip-path="url(#clip0_8_40)">
<path d="M599.992 200.557V66.8542L551.385 200.557H530.119L480.753 66.0946V187.642C480.753 194.479 474.677 200.557 467.842 200.557H461.006V41.0254H492.905L539.993 171.689L587.081 41.0254H618.979V187.642C618.979 194.479 612.903 200.557 606.068 200.557H599.992Z" fill="white"/>
<path d="M770.877 151.178H665.309C667.587 161.054 672.144 169.411 680.498 175.488C688.853 181.565 697.966 185.364 707.84 185.364C721.51 185.364 732.903 180.046 742.016 169.411L758.725 180.046C752.649 187.643 745.054 194.48 736.7 198.278C727.586 202.836 717.713 205.115 707.84 205.115C690.372 205.115 675.182 199.038 663.03 186.123C650.878 173.969 644.043 158.775 644.043 141.303C644.043 123.83 650.119 108.637 663.03 96.482C675.941 84.3273 690.372 77.4902 707.84 77.4902C725.308 77.4902 740.498 83.5676 752.649 96.482C764.801 108.637 771.636 123.83 771.636 141.303C771.636 144.341 771.636 148.14 770.877 151.178ZM735.181 106.358C726.827 100.28 717.713 96.482 707.84 96.482C697.966 96.482 688.853 99.5207 680.498 106.358C672.144 113.195 666.828 120.792 665.309 130.667H750.371C748.092 120.792 743.535 113.195 735.181 106.358Z" fill="white"/>
<path d="M1026.82 205.112C1004.04 205.112 984.291 196.756 967.582 180.803C951.633 164.09 943.279 144.338 943.279 121.548C943.279 98.7582 951.633 79.0067 967.582 62.2939C984.291 45.5811 1004.04 37.9844 1026.82 37.9844C1050.37 37.9844 1070.11 46.3408 1086.06 62.2939L1071.63 75.968C1059.48 63.8132 1044.29 57.7359 1026.82 57.7359C1009.35 57.7359 994.164 63.8132 982.012 76.7277C969.101 88.8824 963.025 104.076 963.025 121.548C963.025 139.021 969.101 154.214 982.012 166.369C994.164 178.524 1009.35 185.361 1026.82 185.361C1044.29 185.361 1059.48 179.283 1071.63 167.129L1086.06 180.803C1070.11 196.756 1050.37 205.112 1026.82 205.112Z" fill="white"/>
<path d="M1197.71 200.557V129.147C1197.71 120.791 1194.67 112.435 1189.35 106.357C1183.28 99.5202 1174.92 96.4815 1165.81 96.4815C1156.69 96.4815 1149.1 99.5202 1142.26 106.357C1136.95 112.435 1133.91 120.791 1133.91 129.147V187.642C1133.91 194.479 1127.83 200.557 1121 200.557H1114.16V41.0254H1133.91V94.9621C1143.02 83.567 1155.17 77.4897 1169.61 77.4897C1182.52 77.4897 1193.91 82.0477 1203.02 91.9234C1212.9 102.559 1217.45 116.993 1217.45 131.426V187.642C1217.45 194.479 1211.38 200.557 1204.54 200.557H1197.71Z" fill="white"/>
<path d="M1348.08 200.547V179.276C1335.93 195.989 1319.98 205.105 1300.24 205.105C1283.53 205.105 1269.1 199.028 1257.71 185.354C1246.31 173.199 1241 158.006 1241 140.533C1241 123.061 1247.07 108.627 1258.47 95.7125C1269.86 82.7981 1284.29 76.7207 1301 76.7207C1320.74 76.7207 1336.69 85.0771 1348.84 102.55V80.5191H1368.59V187.633C1368.59 194.47 1362.51 200.547 1355.68 200.547H1348.08ZM1334.41 110.146C1326.06 101.79 1315.43 97.2319 1303.28 97.2319C1291.12 97.2319 1280.49 101.79 1272.14 110.146C1267.58 114.704 1264.54 119.262 1262.26 124.58C1259.98 129.898 1259.23 135.215 1259.23 141.293C1259.23 153.448 1263.78 163.323 1272.14 172.439C1280.49 180.796 1291.12 185.354 1303.28 185.354C1315.43 185.354 1326.06 180.796 1334.41 172.439C1342.77 164.083 1347.33 153.448 1347.33 141.293C1348.08 129.138 1343.53 118.503 1334.41 110.146Z" fill="white"/>
<path d="M899.989 200.547V179.276C887.837 195.989 871.888 205.105 852.141 205.105C835.433 205.105 821.002 199.028 809.61 185.354C798.218 173.199 792.902 158.006 792.902 140.533C792.902 123.061 798.977 108.627 810.37 95.7125C821.762 82.7981 836.192 76.7207 852.901 76.7207C872.647 76.7207 888.597 85.0771 900.748 102.55V80.5191H920.495V187.633C920.495 194.47 914.419 200.547 907.584 200.547H899.989ZM886.318 110.146C877.964 101.79 867.331 97.2319 855.179 97.2319C843.028 97.2319 832.395 101.79 824.04 110.146C819.483 114.704 816.446 119.262 814.167 124.58C811.889 129.898 811.129 135.215 811.129 141.293C811.129 153.448 815.686 163.323 824.04 172.439C832.395 180.796 843.028 185.354 855.179 185.354C867.331 185.354 877.964 180.796 886.318 172.439C894.672 164.083 899.229 153.448 899.229 141.293C899.989 129.138 895.432 118.503 886.318 110.146Z" fill="white"/>
<path d="M1434.67 88.8847V187.642C1434.67 194.479 1428.59 200.557 1421.75 200.557H1414.16V88.8847H1403.53V69.1333H1414.16V41.0254H1433.91V69.1333H1458.21V88.8847H1434.67Z" fill="white"/>
<path d="M333.413 117.752L265.819 235.501H318.224C335.692 235.501 350.122 226.385 359.236 212.711L360.755 210.432L413.919 117.752H333.413Z" fill="#FFB62F"/>
<path d="M268.098 0L200.504 117.749L132.91 235.498H212.656L280.25 117.749H333.413L401.767 0H268.098Z" fill="url(#paint0_linear_8_40)"/>
<path d="M238.478 52.4174L215.693 0H135.188L67.5941 117.749L0 235.498H79.7458L147.34 117.749L185.314 52.4174H238.478Z" fill="url(#paint1_linear_8_40)"/>
<path d="M154.176 295.519C162.565 295.519 169.365 288.716 169.365 280.325C169.365 271.934 162.565 265.132 154.176 265.132C145.787 265.132 138.986 271.934 138.986 280.325C138.986 288.716 145.787 295.519 154.176 295.519Z" fill="#C400EB"/>
<path d="M206.581 295.519C214.97 295.519 221.77 288.716 221.77 280.325C221.77 271.934 214.97 265.132 206.581 265.132C198.192 265.132 191.391 271.934 191.391 280.325C191.391 288.716 198.192 295.519 206.581 295.519Z" fill="#FF4E4C"/>
<path d="M258.984 295.519C267.373 295.519 274.174 288.716 274.174 280.325C274.174 271.934 267.373 265.132 258.984 265.132C250.595 265.132 243.795 271.934 243.795 280.325C243.795 288.716 250.595 295.519 258.984 295.519Z" fill="#FFB62F"/>
</g>
<defs>
<linearGradient id="paint0_linear_8_40" x1="337.388" y1="-8.06165" x2="196.564" y2="245.075" gradientUnits="userSpaceOnUse">
<stop stop-color="#FF4E4C"/>
<stop offset="1" stop-color="#FFB62F"/>
</linearGradient>
<linearGradient id="paint1_linear_8_40" x1="197.93" y1="7.39086" x2="54.9188" y2="250.055" gradientUnits="userSpaceOnUse">
<stop stop-color="#C400EB"/>
<stop offset="1" stop-color="#FF3C53"/>
</linearGradient>
<clipPath id="clip0_8_40">
<rect width="1456" height="294" fill="white"/>
</clipPath>
</defs>
</svg>
