<svg class="h-7 w-auto" width="455" height="216" viewBox="0 0 455 216" fill="none" xmlns="http://www.w3.org/2000/svg"><g clip-path="url(#clip0_2656_63425)"><path d="M76.66 168.21H0V137.46H66.62C73.45 137.46 75.59 135.75 75.59 128.71V114.62C75.59 89 68.54 81.1 42.92 81.1H21.57V50.35H42.92C89.9 50.35 105.48 67.65 105.48 114.62V139.18C105.48 156.26 93.74 168.22 76.65 168.22L76.66 168.21Z" fill="currentColor"></path><path d="M171.188 77.03V146.64C171.188 180.81 145.568 209.63 111.398 209.63V178.03C128.478 178.03 141.288 163.72 141.288 146.64V77.03H171.178H171.188ZM156.028 67.63C165.208 67.63 173.108 60.16 173.108 50.55C173.108 40.94 165.208 33.47 156.028 33.47C146.848 33.47 138.948 41.37 138.948 50.55C138.948 59.73 146.418 67.63 156.028 67.63Z" fill="currentColor"></path><path fill-rule="evenodd" clip-rule="evenodd" d="M346.72 19.31C341.17 19.31 336.71 23.77 336.71 29.32C336.71 40.57 340.26 51.47 346.72 60.51C353.18 51.47 356.73 40.56 356.73 29.32C356.73 23.77 352.27 19.31 346.72 19.31ZM360.06 74.88C370.35 62.01 376.04 45.95 376.04 29.32C376.04 12.69 362.93 0 346.72 0C330.51 0 317.4 13.11 317.4 29.32C317.4 45.53 323.1 62.02 333.38 74.88L313.63 94.63C300.76 84.34 284.7 78.65 268.07 78.65C251.44 78.65 238.75 91.76 238.75 107.97C238.75 124.18 251.86 137.29 268.07 137.29C284.28 137.29 300.77 131.59 313.63 121.31L333.38 141.06C323.09 153.93 317.4 169.99 317.4 186.62C317.4 203.25 330.51 215.94 346.72 215.94C362.93 215.94 376.04 202.83 376.04 186.62C376.04 170.41 370.34 153.92 360.06 141.06L379.81 121.31C392.68 131.6 408.74 137.29 425.37 137.29C442 137.29 454.69 124.18 454.69 107.97C454.69 91.76 441.58 78.65 425.37 78.65C409.16 78.65 392.67 84.35 379.81 94.63L360.06 74.88ZM346.72 88.86L327.6 107.98L346.72 127.1L365.84 107.98L346.72 88.86ZM394.18 107.97C403.22 114.43 414.13 117.98 425.37 117.98C430.92 117.98 435.38 113.52 435.38 107.97C435.38 102.42 430.92 97.96 425.37 97.96C414.12 97.96 403.22 101.51 394.18 107.97ZM346.72 155.43C340.26 164.47 336.71 175.38 336.71 186.62C336.71 192.17 341.17 196.63 346.72 196.63C352.27 196.63 356.73 192.17 356.73 186.62C356.73 175.37 353.18 164.47 346.72 155.43ZM299.26 107.97C290.22 101.51 279.31 97.96 268.07 97.96C262.52 97.96 258.06 102.42 258.06 107.97C258.06 113.52 262.52 117.98 268.07 117.98C279.32 117.98 290.22 114.43 299.26 107.97Z" fill="currentColor"></path></g><defs><clipPath id="clip0_2656_63425"><rect width="454.69" height="215.95" fill="white"></rect></clipPath></defs></svg>